<?xml version="1.0" encoding="UTF-8"?>
<svg width="386px" height="298px" viewBox="0 0 386 298" version="1.1" xmlns="http://www.w3.org/2000/svg" xmlns:xlink="http://www.w3.org/1999/xlink">
    <!-- Generator: Sketch 3.7.2 (28276) - http://www.bohemiancoding.com/sketch -->
    <title>logo-green</title>
    <desc>Created with Sketch.</desc>
    <defs></defs>
    <g id="Page-1" stroke="none" stroke-width="1" fill="none" fill-rule="evenodd">
        <g id="logo-green">
            <g id="Group">
                <polygon id="Shape" fill="#84BD00" points="288.3 212 264.6 244.9 236.7 273.2 181.8 290.2 121.1 279.3 65.9 231.5 29.4 158.9 13.3 90.9 53.7 75.3 124.4 83.4 211 141.3 259.6 162.9 292.6 160 315.2 153.5"></polygon>
                <path d="M336.4,77.5 C339.2,55 340.7,31.3 340.7,6.4 L340.7,0 L0.7,0 L0.7,6.5 C0.7,177.7 70.6,297.3 170.7,297.3 C216.2,297.3 255.5,272.5 284.8,229.4 C291.5,231.2 298.4,232.1 305.2,232.1 C317.4,232.1 329.5,229.3 340.7,223.8 C360,214.3 374.4,197.9 381.3,177.5 C394.9,137.3 374.8,93.8 336.4,77.5 L336.4,77.5 Z M327.7,13 C327.2,62.1 320.8,106.6 309.5,144.7 C264.8,174.8 219.4,141 179.3,111.1 C176,108.7 172.9,106.3 169.7,104 C120,67.4 64.2,59.1 18.6,80.8 C15.7,59.4 14,36.8 13.8,13 L327.7,13 L327.7,13 Z M170.7,284.3 C95.9,284.3 39.4,209.5 20.6,94.4 C62.5,72.6 115,79.9 162.1,114.4 C165.2,116.7 168.4,119 171.6,121.4 C201.3,143.5 236.1,169.5 272.7,169.5 C282.9,169.5 293.2,167.4 303.6,162.7 C276.8,238.2 229.4,284.3 170.7,284.3 L170.7,284.3 Z M369,173.2 C363.2,190.3 351.1,204 335,212 C321.6,218.6 306.7,220.5 292.3,217.7 C312.3,184 326.9,141 334.5,90.9 C364.7,105.5 380,140.7 369,173.2 L369,173.2 Z" id="Shape" fill="#000000"></path>
            </g>
        </g>
    </g>
</svg>