<?xml version="1.0" encoding="UTF-8"?>
<svg width="379px" height="49px" viewBox="0 0 379 49" version="1.1" xmlns="http://www.w3.org/2000/svg" xmlns:xlink="http://www.w3.org/1999/xlink">
    <!-- Generator: Sketch 3.7.2 (28276) - http://www.bohemiancoding.com/sketch -->
    <title>logo</title>
    <desc>Created with Sketch.</desc>
    <defs></defs>
    <g id="Page-1" stroke="none" stroke-width="1" fill="none" fill-rule="evenodd">
        <g id="logo">
            <path d="M33.512,6.541 L21.606,6.541 L21.606,45.181 C21.606,46.066 21.294,46.82 20.672,47.442 C20.049,48.065 19.295,48.376 18.411,48.376 C17.527,48.376 16.773,48.065 16.15,47.442 C15.527,46.82 15.216,46.066 15.216,45.181 L15.216,6.541 L3.311,6.541 C2.427,6.541 1.673,6.23 1.051,5.607 C0.428,4.985 0.117,4.231 0.117,3.348 C0.117,2.463 0.428,1.711 1.051,1.087 C1.673,0.464 2.427,0.153 3.311,0.153 L33.512,0.153 C34.396,0.153 35.149,0.464 35.772,1.087 C36.395,1.71 36.706,2.463 36.706,3.348 C36.706,4.232 36.394,4.985 35.772,5.607 C35.149,6.23 34.396,6.541 33.512,6.541 L33.512,6.541 Z" id="Shape" fill="#FFFFFF"></path>
            <path d="M44.513,17.755 L44.513,18.357 C46.02,17.153 47.658,16.228 49.426,15.585 C51.194,14.942 53.083,14.62 55.092,14.62 C55.976,14.62 56.925,14.68 57.941,14.801 C58.955,14.922 59.889,15.138 60.744,15.449 C61.598,15.76 62.306,16.188 62.869,16.73 C63.431,17.273 63.713,17.975 63.713,18.839 C63.713,19.282 63.627,19.694 63.457,20.075 C63.286,20.457 63.06,20.794 62.779,21.085 C62.497,21.377 62.166,21.603 61.784,21.763 C61.402,21.925 60.99,22.004 60.548,22.004 C60.166,22.004 59.724,21.894 59.222,21.672 C57.956,21.171 56.579,20.918 55.092,20.918 C53.625,20.918 52.248,21.195 50.963,21.747 C49.676,22.301 48.556,23.054 47.602,24.008 C46.648,24.963 45.894,26.082 45.342,27.369 C44.789,28.656 44.513,30.031 44.513,31.499 L44.513,45.242 C44.513,46.107 44.206,46.845 43.594,47.458 C42.981,48.072 42.242,48.377 41.378,48.377 C40.494,48.377 39.745,48.071 39.133,47.458 C38.519,46.846 38.214,46.107 38.214,45.242 L38.214,17.755 C38.214,16.89 38.52,16.152 39.133,15.539 C39.745,14.927 40.494,14.62 41.378,14.62 C42.242,14.62 42.98,14.927 43.594,15.539 C44.206,16.151 44.513,16.89 44.513,17.755 L44.513,17.755 Z" id="Shape" fill="#FFFFFF"></path>
            <path d="M94.728,45.242 L94.728,44.64 C93.221,45.844 91.583,46.769 89.815,47.412 C88.047,48.056 86.158,48.377 84.149,48.377 C79.487,48.377 75.509,46.73 72.213,43.435 C68.917,40.14 67.27,36.161 67.27,31.499 C67.27,26.836 68.917,22.859 72.213,19.562 C75.508,16.267 79.487,14.62 84.149,14.62 C88.771,14.62 92.749,16.267 96.085,19.562 C99.38,22.859 101.029,26.836 101.029,31.499 L101.029,45.242 C101.029,46.107 100.722,46.845 100.11,47.458 C99.497,48.072 98.758,48.377 97.894,48.377 C97.01,48.377 96.261,48.071 95.648,47.458 C95.033,46.845 94.728,46.106 94.728,45.242 L94.728,45.242 Z M84.148,20.918 C82.661,20.918 81.274,21.2 79.989,21.762 C78.702,22.325 77.588,23.084 76.643,24.038 C75.698,24.993 74.95,26.112 74.398,27.399 C73.845,28.686 73.569,30.052 73.569,31.499 C73.569,32.945 73.845,34.312 74.398,35.597 C74.95,36.884 75.698,38.004 76.643,38.958 C77.588,39.913 78.702,40.671 79.989,41.234 C81.274,41.797 82.661,42.078 84.148,42.078 C85.615,42.078 86.991,41.797 88.277,41.234 C89.563,40.671 90.684,39.908 91.638,38.943 C92.592,37.978 93.346,36.859 93.899,35.582 C94.451,34.306 94.728,32.944 94.728,31.499 C94.728,30.052 94.451,28.69 93.899,27.415 C93.346,26.139 92.593,25.019 91.638,24.054 C90.684,23.089 89.563,22.326 88.277,21.763 C86.991,21.201 85.615,20.918 84.148,20.918 L84.148,20.918 Z" id="Shape" fill="#FFFFFF"></path>
            <path d="M112.119,17.724 C114.791,15.654 117.936,14.619 121.553,14.619 C123.662,14.619 125.667,15.031 127.566,15.855 C129.465,16.678 131.138,17.799 132.585,19.215 C134.032,20.632 135.177,22.301 136.021,24.219 C136.865,26.139 137.286,28.183 137.286,30.353 L137.286,45.211 C137.286,46.096 136.98,46.844 136.368,47.457 C135.754,48.071 135.016,48.376 134.153,48.376 C133.268,48.376 132.52,48.07 131.907,47.457 C131.293,46.845 130.988,46.096 130.988,45.211 L130.988,30.353 C130.988,29.066 130.736,27.851 130.234,26.706 C129.731,25.561 129.053,24.562 128.199,23.707 C127.345,22.853 126.345,22.175 125.2,21.672 C124.055,21.171 122.839,20.918 121.553,20.918 C120.247,20.918 119.026,21.165 117.891,21.657 C116.755,22.15 115.756,22.828 114.892,23.692 C114.028,24.557 113.35,25.561 112.858,26.706 C112.365,27.851 112.119,29.067 112.119,30.353 L112.119,45.211 C112.119,46.096 111.812,46.844 111.2,47.457 C110.587,48.071 109.848,48.376 108.984,48.376 C108.1,48.376 107.351,48.07 106.739,47.457 C106.125,46.845 105.82,46.096 105.82,45.211 L105.82,17.785 C105.82,16.92 106.126,16.176 106.739,15.554 C107.351,14.931 108.1,14.62 108.984,14.62 C109.848,14.62 110.586,14.931 111.2,15.554 C111.812,16.176 112.119,16.9 112.119,17.724 L112.119,17.724 Z" id="Shape" fill="#FFFFFF"></path>
            <path d="M148.165,32.311 C146.277,31.589 144.951,30.845 144.187,30.082 L144.217,30.082 C142.689,28.535 141.926,26.715 141.926,24.626 C141.926,23.1 142.333,21.717 143.147,20.481 C143.961,19.245 145.02,18.196 146.326,17.332 C147.633,16.467 149.105,15.799 150.742,15.327 C152.379,14.854 154.022,14.619 155.671,14.619 C160.694,14.619 165.005,16.639 168.601,20.677 C169.023,21.2 169.234,21.833 169.234,22.576 C169.234,23.48 168.937,24.23 168.345,24.822 C167.752,25.415 167.004,25.711 166.099,25.711 C165.456,25.711 164.908,25.53 164.456,25.168 C164.004,24.806 163.567,24.414 163.145,23.992 C161.095,21.942 158.604,20.917 155.671,20.917 C152.777,20.917 150.466,21.802 148.738,23.57 C148.417,23.892 148.256,24.335 148.256,24.896 C148.256,25.459 148.518,25.84 149.04,26.041 L163.146,30.683 C165.115,31.446 166.441,32.189 167.125,32.912 L167.095,32.912 C168.621,34.46 169.386,36.279 169.386,38.368 C169.386,39.915 168.979,41.302 168.165,42.528 C167.351,43.753 166.291,44.804 164.985,45.677 C163.679,46.551 162.212,47.22 160.584,47.682 C158.958,48.145 157.319,48.375 155.672,48.375 C150.608,48.375 146.297,46.376 142.742,42.378 C142.299,41.796 142.079,41.142 142.079,40.419 C142.079,39.515 142.375,38.767 142.968,38.173 C143.56,37.581 144.309,37.284 145.214,37.284 C145.877,37.284 146.439,37.48 146.901,37.872 C147.364,38.264 147.786,38.641 148.167,39.002 C150.217,41.052 152.719,42.077 155.673,42.077 C158.546,42.077 160.856,41.173 162.605,39.364 C162.906,39.023 163.057,38.61 163.057,38.128 C163.057,37.566 162.786,37.174 162.243,36.952 L148.165,32.311 L148.165,32.311 Z" id="Shape" fill="#FFFFFF"></path>
            <path d="M173.666,45.242 L173.666,3.317 C173.666,2.432 173.962,1.684 174.555,1.071 C175.147,0.459 175.896,0.152 176.801,0.152 C177.706,0.152 178.453,0.459 179.045,1.071 C179.638,1.683 179.934,2.432 179.934,3.317 L179.934,42.078 L181.381,42.078 C182.246,42.078 182.984,42.384 183.597,42.997 C184.209,43.609 184.516,44.358 184.516,45.241 C184.516,46.106 184.209,46.844 183.597,47.457 C182.985,48.071 182.246,48.376 181.381,48.376 L176.77,48.376 C175.905,48.376 175.172,48.07 174.569,47.457 C173.967,46.845 173.666,46.106 173.666,45.242 L173.666,45.242 Z" id="Shape" fill="#FFFFFF"></path>
            <path d="M215.893,45.242 L215.893,44.64 C214.386,45.844 212.747,46.769 210.98,47.412 C209.211,48.056 207.323,48.377 205.314,48.377 C200.651,48.377 196.672,46.73 193.377,43.435 C190.082,40.14 188.435,36.161 188.435,31.499 C188.435,26.836 190.082,22.859 193.377,19.562 C196.672,16.267 200.651,14.62 205.314,14.62 C209.934,14.62 213.913,16.267 217.25,19.562 C220.545,22.859 222.192,26.836 222.192,31.499 L222.192,45.242 C222.192,46.107 221.886,46.845 221.273,47.458 C220.661,48.072 219.922,48.377 219.059,48.377 C218.174,48.377 217.426,48.071 216.813,47.458 C216.199,46.845 215.893,46.106 215.893,45.242 L215.893,45.242 Z M205.314,20.918 C203.826,20.918 202.439,21.2 201.154,21.762 C199.867,22.325 198.752,23.084 197.808,24.038 C196.864,24.993 196.114,26.112 195.562,27.399 C195.01,28.686 194.733,30.052 194.733,31.499 C194.733,32.945 195.01,34.312 195.562,35.597 C196.114,36.884 196.864,38.004 197.808,38.958 C198.752,39.913 199.867,40.671 201.154,41.234 C202.439,41.797 203.826,42.078 205.314,42.078 C206.78,42.078 208.157,41.797 209.442,41.234 C210.729,40.671 211.848,39.908 212.803,38.943 C213.757,37.978 214.51,36.859 215.064,35.582 C215.616,34.306 215.893,32.944 215.893,31.499 C215.893,30.052 215.616,28.69 215.064,27.415 C214.51,26.139 213.757,25.019 212.803,24.054 C211.848,23.089 210.729,22.326 209.442,21.763 C208.157,21.201 206.78,20.918 205.314,20.918 L205.314,20.918 Z" id="Shape" fill="#FFFFFF"></path>
            <path d="M227.256,14.62 L228.671,14.62 L228.671,3.287 C228.671,2.422 228.978,1.684 229.59,1.071 C230.204,0.459 230.952,0.152 231.836,0.152 C232.701,0.152 233.439,0.459 234.052,1.071 C234.664,1.683 234.971,2.422 234.971,3.287 L234.971,14.62 L238.739,14.62 C239.602,14.62 240.337,14.927 240.94,15.539 C241.543,16.151 241.844,16.89 241.844,17.755 C241.844,18.639 241.543,19.387 240.94,19.999 C240.337,20.613 239.603,20.918 238.739,20.918 L234.971,20.918 L234.971,36.079 C234.971,40.079 236.98,42.078 241,42.078 C241.863,42.078 242.596,42.384 243.199,42.997 C243.802,43.609 244.103,44.348 244.103,45.211 C244.103,46.096 243.802,46.844 243.199,47.457 C242.596,48.071 241.863,48.376 241,48.376 C232.78,48.376 228.671,44.278 228.671,36.079 L228.671,20.918 L227.256,20.918 C226.412,20.918 225.683,20.612 225.071,19.999 C224.457,19.387 224.152,18.638 224.152,17.755 C224.152,16.89 224.458,16.152 225.071,15.539 C225.683,14.927 226.412,14.62 227.256,14.62 L227.256,14.62 Z" id="Shape" fill="#FFFFFF"></path>
            <path d="M272.256,38.883 C273.16,38.883 273.908,39.18 274.502,39.772 C275.094,40.365 275.391,41.113 275.391,42.018 C275.391,42.902 275.09,43.655 274.487,44.279 C271.371,47.011 267.695,48.377 263.456,48.377 C258.793,48.377 254.814,46.73 251.519,43.435 C248.224,40.14 246.577,36.161 246.577,31.499 C246.577,26.836 248.224,22.859 251.519,19.562 C254.814,16.267 258.793,14.62 263.456,14.62 C268.076,14.62 272.055,16.267 275.392,19.562 C277.039,21.19 278.275,23.004 279.098,25.003 C279.923,27.002 280.334,29.167 280.334,31.499 C280.334,32.402 280.028,33.151 279.415,33.743 C278.803,34.336 278.054,34.632 277.171,34.632 L253.298,34.632 C253.641,35.738 254.142,36.748 254.805,37.661 C255.468,38.576 256.246,39.359 257.141,40.012 C258.034,40.666 259.019,41.173 260.095,41.534 C261.169,41.896 262.29,42.077 263.456,42.077 C264.781,42.077 265.998,41.876 267.102,41.474 C268.208,41.073 269.233,40.47 270.177,39.665 C270.779,39.165 271.473,38.903 272.256,38.883 L272.256,38.883 Z M273.613,28.364 C273.27,27.258 272.764,26.248 272.091,25.335 C271.417,24.421 270.633,23.637 269.74,22.984 C268.845,22.332 267.861,21.823 266.786,21.462 C265.712,21.1 264.601,20.919 263.457,20.919 C262.312,20.919 261.196,21.1 260.111,21.462 C259.026,21.824 258.031,22.332 257.127,22.984 C256.223,23.638 255.439,24.421 254.776,25.335 C254.113,26.249 253.621,27.259 253.299,28.364 L273.613,28.364 L273.613,28.364 Z" id="Shape" fill="#FFFFFF"></path>
            <path d="M325.364,40.721 C325.364,41.565 325.032,42.328 324.369,43.012 C319.887,46.588 314.834,48.376 309.208,48.376 C302.537,48.376 296.85,46.025 292.148,41.324 C287.447,36.622 285.096,30.935 285.096,24.264 C285.096,17.613 287.447,11.937 292.148,7.234 C296.87,2.512 302.557,0.152 309.208,0.152 C314.915,0.152 320.068,2.031 324.67,5.788 C325.232,6.311 325.514,7.044 325.514,7.988 C325.514,8.451 325.433,8.873 325.273,9.254 C325.111,9.636 324.885,9.973 324.595,10.264 C324.303,10.556 323.962,10.782 323.57,10.942 C323.178,11.104 322.76,11.183 322.319,11.183 C321.496,11.183 320.761,10.882 320.118,10.279 C318.592,9.073 316.908,8.15 315.07,7.506 C313.231,6.863 311.276,6.541 309.207,6.541 C304.305,6.541 300.115,8.28 296.638,11.756 C293.202,15.192 291.483,19.362 291.483,24.264 C291.483,29.187 293.201,33.366 296.638,36.802 C300.094,40.259 304.284,41.987 309.207,41.987 C312.843,41.987 316.099,41.032 318.972,39.123 L318.972,29.78 L310.654,29.78 C309.75,29.78 308.991,29.473 308.378,28.861 C307.766,28.249 307.459,27.489 307.459,26.585 C307.459,26.142 307.54,25.726 307.7,25.334 C307.86,24.942 308.086,24.601 308.378,24.309 C308.668,24.019 309.006,23.792 309.388,23.631 C309.769,23.471 310.191,23.39 310.654,23.39 L322.198,23.39 C322.62,23.39 323.021,23.476 323.404,23.646 C323.785,23.817 324.122,24.049 324.414,24.339 C324.704,24.631 324.936,24.972 325.107,25.364 C325.277,25.756 325.363,26.163 325.363,26.585 L325.363,40.721 L325.364,40.721 Z" id="Shape" fill="#FFFFFF"></path>
            <circle id="Oval" fill="#FFCD2C" cx="84.148" cy="31.498" r="8.126"></circle>
            <circle id="Oval" fill="#F39200" cx="339.814" cy="39.146" r="8.126"></circle>
            <circle id="Oval" fill="#FFCD2C" cx="369.376" cy="9.13" r="8.126"></circle>
            <path d="M367.187,36.938 C360.238,43.887 348.971,43.887 342.022,36.938 C335.073,29.989 335.073,18.722 342.022,11.773 L337.392,7.143 C327.886,16.649 327.886,32.061 337.392,41.568 C346.898,51.075 362.31,51.074 371.817,41.568 L367.187,36.938 L367.187,36.938 Z" id="Shape" fill="#F39200"></path>
            <path d="M342.022,11.773 C348.971,4.824 360.238,4.824 367.187,11.773 C374.136,18.722 374.136,29.989 367.187,36.938 L371.817,41.568 C381.323,32.062 381.323,16.65 371.817,7.143 C362.311,-2.363 346.898,-2.363 337.392,7.143 L342.022,11.773 L342.022,11.773 Z" id="Shape" fill="#FFCD2C"></path>
        </g>
    </g>
</svg>