<?xml version="1.0" encoding="UTF-8"?>
<svg width="49px" height="49px" viewBox="0 0 49 49" version="1.1" xmlns="http://www.w3.org/2000/svg" xmlns:xlink="http://www.w3.org/1999/xlink">
    <!-- Generator: Sketch 3.7.2 (28276) - http://www.bohemiancoding.com/sketch -->
    <title>Group</title>
    <desc>Created with Sketch.</desc>
    <defs></defs>
    <g id="Page-2" stroke="none" stroke-width="1" fill="none" fill-rule="evenodd">
        <g id="Group">
            <circle id="Oval" fill="#F39200" cx="9.814" cy="39.146" r="8.126"></circle>
            <circle id="Oval" fill="#FFCD2C" cx="39.376" cy="9.13" r="8.126"></circle>
            <path d="M37.187,36.938 C30.238,43.887 18.971,43.887 12.022,36.938 C5.073,29.989 5.073,18.722 12.022,11.773 L7.392,7.143 C-2.114,16.649 -2.114,32.061 7.392,41.568 C16.898,51.075 32.31,51.074 41.817,41.568 L37.187,36.938 L37.187,36.938 Z" id="Shape" fill="#F39200"></path>
            <path d="M12.022,11.773 C18.971,4.824 30.238,4.824 37.187,11.773 C44.136,18.722 44.136,29.989 37.187,36.938 L41.817,41.568 C51.323,32.062 51.323,16.65 41.817,7.143 C32.311,-2.363 16.898,-2.363 7.392,7.143 L12.022,11.773 L12.022,11.773 Z" id="Shape" fill="#FFCD2C"></path>
        </g>
    </g>
</svg>