<?xml version="1.0" encoding="utf-8"?>
<!-- Generator: Adobe Illustrator 21.0.0, SVG Export Plug-In . SVG Version: 6.00 Build 0)  -->
<svg version="1.1" id="Layer_1" xmlns="http://www.w3.org/2000/svg" xmlns:xlink="http://www.w3.org/1999/xlink" x="0px" y="0px"
	 viewBox="0 0 500 426" style="enable-background:new 0 0 500 426;" xml:space="preserve">
<style type="text/css">
	.st0{fill:#84BD00;}
</style>
<g>
	<path d="M56.1,424.8h-7.8v-9.3c-4.1,6.9-12.6,10.5-20.5,10.5C12.3,426,0,414.7,0,397.5s12.3-28.2,27.8-28.2
		c7.9,0,16.4,3.3,20.5,10.1V341h7.8V424.8z M27.8,418.2c11.1,0,20.5-7.3,20.5-20.7c0-13.4-10.7-20.4-20.5-20.4
		c-11.3,0-20,7.9-20,20.4C7.8,409.6,16.5,418.2,27.8,418.2z"/>
	<path d="M79,344.6c3.3,0,5.9,2.3,5.9,5.6c0,3.3-2.7,5.6-5.9,5.6s-5.9-2.3-5.9-5.6C73,346.9,75.7,344.6,79,344.6z M82.7,370.4H75
		v54.4h7.7V370.4z"/>
	<path d="M103.1,370.4l18.5,45.3l18.4-45.3h8.3l-22.6,54.4h0.1h-8.4l-22.5-54.4H103.1z"/>
	<path d="M155.2,397.5c0-17.2,12-28.2,27.5-28.2s26.7,11,26.7,28.2c0,1.2,0,2.6-0.1,3.6h-46.1c1.4,10.6,9.4,17.2,19.6,17.2
		c7.3,0,13.6-3.5,17-9.4c2.3,0.6,5.4,1.2,7.8,1.7c-4.4,9.7-13.9,15.4-24.8,15.4C167.2,426,155.2,414.7,155.2,397.5z M201.5,393.9
		c-1.5-10.4-8.7-16.9-18.8-16.9s-18.1,6.5-19.6,16.9H201.5z"/>
	<path d="M255.2,378.9c-2.6-1.3-5.9-1.9-7.9-1.9c-11.1,0-15.6,13-15.6,27.5v20.3h-7.8v-54.4h7.8v12.4c2.7-9.3,7.7-13.5,15.6-13.5
		c3.7,0,7.8,1.2,8.9,2.1L255.2,378.9z"/>
	<path d="M270.3,409.2c1,4.1,3.6,9.4,12.8,9.4c7,0,11.5-3.5,11.5-8.6c0-3.6-2.1-7-7.8-8.4l-7.6-1.8c-6.8-1.6-15.1-5-13.7-17.7
		c1.2-7.8,8.9-12.9,17.7-12.9c8.4,0,15.7,4.1,17.1,14.1h-7.6c-0.9-4.2-4.9-6.6-9.6-6.6c-5.2,0-9.5,2.8-10.1,6.6
		c-1.2,6.3,4.2,8.2,8,9.1l7.5,1.8c10.2,2.4,13.7,8.4,13.7,15.8c0,9.4-8.6,16-19.9,16c-9.2,0-18.5-6.2-19-16.8H270.3z"/>
	<path d="M321.1,344.6c3.3,0,5.9,2.3,5.9,5.6c0,3.3-2.7,5.6-5.9,5.6c-3.3,0-5.9-2.3-5.9-5.6C315.1,346.9,317.8,344.6,321.1,344.6z
		 M324.8,370.4h-7.7v54.4h7.7V370.4z"/>
	<path d="M358.9,370.4h11.5v9.9h-11.5v44.5h-12v-44.5h-9.8v-9.9h9.8v-20.6h12V370.4z"/>
	<path d="M432.6,401.9h-43.2c1.2,8.4,7.9,13.6,16.7,13.6c6.1,0,12-2.8,14.8-7.8c3,1.4,6.6,2.9,9.8,4.3c-4.8,9.5-14.9,14-25.2,14
		c-15.5,0-28-11.3-28-28.5s12.5-28.2,28-28.2s27.3,11,27.3,28.2C432.7,398.7,432.7,400.7,432.6,401.9z M420.9,393.1
		c-1.2-8.5-7.3-13.4-15.5-13.4c-8.4,0-14.9,5-16.1,13.4H420.9z"/>
	<path d="M487.8,417c-3.6,5.9-11.5,9-18.3,9c-14.7,0-27.6-11.1-27.6-28.4c0-17.4,12.9-28.3,27.6-28.3c6.5,0,14.6,2.7,18.3,8.9v-7.7
		h11.9v54.4h-11.9V417z M470.9,414.4c8.9,0,16.8-6.2,16.8-16.9c0-10.7-8.6-16.5-16.8-16.5c-9.1,0-16.7,6.5-16.7,16.5
		S461.8,414.4,470.9,414.4z"/>
</g>
<g>
	<polygon class="st0" points="346.3,212 322.6,244.9 294.7,273.2 239.8,290.2 179.1,279.3 123.9,231.5 87.4,158.9 71.3,90.9 
		111.7,75.3 182.4,83.4 269,141.3 317.6,162.9 350.6,160 373.2,153.5 	"/>
	<path d="M394.4,77.5c2.8-22.5,4.3-46.2,4.3-71.1V0h-340v6.5c0,171.2,69.9,290.8,170,290.8c45.5,0,84.8-24.8,114.1-67.9
		c6.7,1.8,13.6,2.7,20.4,2.7c12.2,0,24.3-2.8,35.5-8.3c19.3-9.5,33.7-25.9,40.6-46.3C452.9,137.3,432.8,93.8,394.4,77.5z M385.7,13
		c-0.5,49.1-6.9,93.6-18.2,131.7c-44.7,30.1-90.1-3.7-130.2-33.6c-3.3-2.4-6.4-4.8-9.6-7.1C178,67.4,122.2,59.1,76.6,80.8
		c-2.9-21.4-4.6-44-4.8-67.8H385.7z M228.7,284.3c-74.8,0-131.3-74.8-150.1-189.9c41.9-21.8,94.4-14.5,141.5,20
		c3.1,2.3,6.3,4.6,9.5,7c29.7,22.1,64.5,48.1,101.1,48.1c10.2,0,20.5-2.1,30.9-6.8C334.8,238.2,287.4,284.3,228.7,284.3z M427,173.2
		c-5.8,17.1-17.9,30.8-34,38.8c-13.4,6.6-28.3,8.5-42.7,5.7c20-33.7,34.6-76.7,42.2-126.8C422.7,105.5,438,140.7,427,173.2z"/>
</g>
</svg>
