<?xml version="1.0" encoding="UTF-8"?>
<svg width="532px" height="219px" viewBox="0 0 532 219" version="1.1" xmlns="http://www.w3.org/2000/svg" xmlns:xlink="http://www.w3.org/1999/xlink">
    <!-- Generator: Sketch 3.7.2 (28276) - http://www.bohemiancoding.com/sketch -->
    <title>Group</title>
    <desc>Created with Sketch.</desc>
    <defs>
        <path d="M0.0573050152,94.0000038 C0.0573050152,94.0000038 -0.0716312722,34.2881647 0.05730502,22.5 C22.1990347,16.8390984 62.8959424,-10.7654411 111.464174,4.99999981 C201.225001,34.1367214 317.154632,122.544493 387.472182,144.500003 C507.625952,182.016061 526.870734,142.096097 526.870734,142.096097 C529.703549,138.729316 532,132.40977 532,132.543211 C532,132.543211 532,125.467663 532,132.96191 C532,165.467875 532,263.995425 532,263.995425 C532,268.416228 528.426898,271.999996 524.00215,271.999996 L8.05515497,271.999996 C3.63806441,271.999996 0.0573050185,268.424293 0.0573050184,264.005906 L0.0573050152,94.0000038 Z" id="path-1"></path>
    </defs>
    <g id="Page-1" stroke="none" stroke-width="1" fill="none" fill-rule="evenodd">
        <g id="Group" transform="translate(-148.000000, -15.000000)">
            <g transform="translate(148.000000, 15.000000)">
                <rect id="Rectangle-2" fill="#84BD00" x="0" y="206" width="532" height="66"></rect>
                <mask id="mask-2" fill="white">
                    <use xlink:href="#path-1"></use>
                </mask>
                <use id="Rectangle-1" fill="#84BD00" xlink:href="#path-1"></use>
            </g>
        </g>
    </g>
</svg>